<svg width="1200" height="630" viewBox="0 0 1200 630" fill="none" xmlns="http://www.w3.org/2000/svg" role="img" aria-labelledby="title description">
  <title id="title">ANDMININ Engineering social preview</title>
  <desc id="description">Dark engineering brand preview with system grid and technical positioning.</desc>
  <rect width="1200" height="630" fill="#090909"/>
  <path d="M0 120H1200M0 240H1200M0 360H1200M0 480H1200M120 0V630M240 0V630M360 0V630M480 0V630M600 0V630M720 0V630M840 0V630M960 0V630M1080 0V630" stroke="white" stroke-opacity="0.06"/>
  <rect x="92" y="88" width="1016" height="454" rx="8" fill="#101114" stroke="white" stroke-opacity="0.14"/>
  <rect x="136" y="132" width="18" height="18" rx="2" stroke="#3B82F6" stroke-width="3"/>
  <text x="174" y="149" fill="#FFFFFF" font-family="Inter, Arial, sans-serif" font-size="24" font-weight="700">ANDMININ Engineering</text>
  <text x="136" y="292" fill="#FFFFFF" font-family="Inter, Arial, sans-serif" font-size="76" font-weight="800">Complex products</text>
  <text x="136" y="380" fill="#FFFFFF" font-family="Inter, Arial, sans-serif" font-size="76" font-weight="800">from concept to production.</text>
  <text x="136" y="455" fill="#B0B0B0" font-family="Inter, Arial, sans-serif" font-size="30">Backend Engineering | Distributed Systems | Product Architecture</text>
  <rect x="840" y="128" width="176" height="42" rx="6" fill="#3B82F6" fill-opacity="0.18" stroke="#3B82F6"/>
  <text x="866" y="157" fill="#FFFFFF" font-family="Inter, Arial, sans-serif" font-size="18" font-weight="700">Evidence based</text>
  <circle cx="927" cy="290" r="7" fill="#3B82F6"/>
  <circle cx="1016" cy="354" r="7" fill="#3B82F6"/>
  <circle cx="874" cy="414" r="7" fill="#3B82F6"/>
  <path d="M927 290L1016 354L874 414L927 290Z" stroke="#3B82F6" stroke-width="3" stroke-opacity="0.8"/>
</svg>
